<?xml version="1.0" encoding="UTF-8" standalone="no"?>
<!-- Generator: Adobe Illustrator 25.1.0, SVG Export Plug-In . SVG Version: 6.00 Build 0)  -->

<svg
   xmlns:dc="http://purl.org/dc/elements/1.1/"
   xmlns:cc="http://creativecommons.org/ns#"
   xmlns:rdf="http://www.w3.org/1999/02/22-rdf-syntax-ns#"
   xmlns:svg="http://www.w3.org/2000/svg"
   xmlns="http://www.w3.org/2000/svg"
   xmlns:sodipodi="http://sodipodi.sourceforge.net/DTD/sodipodi-0.dtd"
   xmlns:inkscape="http://www.inkscape.org/namespaces/inkscape"
   version="1.1"
   id="Calque_1"
   x="0px"
   y="0px"
   viewBox="0 0 69.136393 20.684601"
   xml:space="preserve"
   sodipodi:docname="logo_sentence.svg"
   inkscape:version="0.92.5 (2060ec1f9f, 2020-04-08)"
   width="69.136391"
   height="20.684601"><metadata
   id="metadata23"><rdf:RDF><cc:Work
       rdf:about=""><dc:format>image/svg+xml</dc:format><dc:type
         rdf:resource="http://purl.org/dc/dcmitype/StillImage" /></cc:Work></rdf:RDF></metadata><defs
   id="defs21" /><sodipodi:namedview
   pagecolor="#ffffff"
   bordercolor="#666666"
   borderopacity="1"
   objecttolerance="10"
   gridtolerance="10"
   guidetolerance="10"
   inkscape:pageopacity="0"
   inkscape:pageshadow="2"
   inkscape:window-width="1920"
   inkscape:window-height="1022"
   id="namedview19"
   showgrid="false"
   inkscape:zoom="6.6605519"
   inkscape:cx="-2.9073356"
   inkscape:cy="7.4946326"
   inkscape:window-x="0"
   inkscape:window-y="26"
   inkscape:window-maximized="1"
   inkscape:current-layer="text4" />
<style
   type="text/css"
   id="style2">
	.st0{fill:#020203;}
	.st1{font-family:'Baloo 2';}
	.st2{font-size:18px;}
	.st3{font-size:3px;}
	.st4{fill:#EFD76C;stroke:#9DA97C;stroke-width:4;stroke-linecap:round;stroke-miterlimit:10;}
	.st5{fill:#F0D76B;stroke:#EFD76C;stroke-width:4;stroke-linecap:round;stroke-miterlimit:10;}
</style>
<g
   aria-label="zest "
   transform="translate(26.848486,14.472)"
   style="font-size:18px;font-family:'Baloo 2';fill:#020203"
   id="text4"><path
     d="M 1.464,0 Q 1.08,-0.312 1.08,-0.84 1.08,-1.128 1.2,-1.368 1.32,-1.632 1.512,-1.872 L 7.608,-9.504 H 1.44 q -0.072,-0.12 -0.144,-0.312 -0.072,-0.216 -0.072,-0.48 0,-0.792 0.72,-0.792 h 7.68 q 0.408,0.336 0.408,0.864 0,0.48 -0.456,1.008 L 3.48,-1.56 h 6.504 q 0.072,0.12 0.144,0.312 Q 10.2,-1.056 10.2,-0.792 10.2,0 9.456,0 Z"
     style="font-size:24px"
     id="path4813"
     inkscape:connector-curvature="0" /><path
     d="m 14.183991,-4.416 q 0.648,3.144 4.128,3.144 1.008,0 1.824,-0.336 0.816,-0.336 1.296,-0.72 0.576,0.336 0.576,0.912 0,0.336 -0.312,0.648 -0.288,0.312 -0.816,0.552 -0.504,0.24 -1.2,0.384 -0.672,0.144 -1.464,0.144 -2.784,0 -4.416,-1.512 -1.608,-1.512 -1.608,-4.416 0,-1.368 0.384,-2.424 0.408,-1.08 1.104,-1.824 0.72,-0.744 1.704,-1.128 0.984,-0.408 2.136,-0.408 1.08,0 1.992,0.36 0.912,0.36 1.56,1.032 0.672,0.648 1.032,1.56 0.384,0.888 0.384,1.968 0,0.528 -0.24,0.768 -0.24,0.216 -0.672,0.264 z m 3.312,-5.424 q -1.464,0 -2.424,1.032 -0.96,1.008 -1.008,2.904 l 6.6,-0.912 q -0.12,-1.32 -0.936,-2.16 -0.792,-0.864 -2.232,-0.864 z"
     style="font-size:24px"
     id="path4815"
     inkscape:connector-curvature="0" /><path
     d="m 33.239936,-2.952 q 0,1.536 -1.128,2.4 -1.128,0.864 -3.264,0.864 -0.912,0 -1.68,-0.168 -0.768,-0.144 -1.32,-0.384 -0.528,-0.264 -0.84,-0.576 -0.288,-0.336 -0.288,-0.672 0,-0.288 0.144,-0.552 0.168,-0.264 0.48,-0.456 0.648,0.48 1.512,0.864 0.864,0.36 1.968,0.36 2.496,0 2.496,-1.68 0,-1.368 -1.656,-1.776 l -1.992,-0.528 q -1.464,-0.384 -2.136,-1.104 -0.672,-0.744 -0.672,-1.896 0,-0.624 0.24,-1.2 0.264,-0.576 0.792,-1.008 0.528,-0.432 1.296,-0.672 0.792,-0.264 1.848,-0.264 1.68,0 2.712,0.504 1.032,0.48 1.032,1.128 0,0.312 -0.168,0.552 -0.144,0.24 -0.408,0.36 -0.432,-0.288 -1.224,-0.624 -0.792,-0.336 -1.872,-0.336 -1.08,0 -1.728,0.408 -0.624,0.408 -0.624,1.152 0,0.552 0.36,0.936 0.36,0.384 1.2,0.576 l 1.656,0.408 q 1.632,0.408 2.448,1.224 0.816,0.792 0.816,2.16 z"
     style="font-size:24px"
     id="path4817"
     inkscape:connector-curvature="0" /><path
     d="m 39.935903,0.312 q -1.68,0 -2.736,-0.744 -1.032,-0.744 -1.032,-2.472 v -11.4 q 0.12,-0.048 0.36,-0.096 0.264,-0.072 0.552,-0.072 1.008,0 1.008,0.864 v 2.76 h 3.936 q 0.072,0.12 0.144,0.336 0.072,0.192 0.072,0.432 0,0.816 -0.72,0.816 h -3.432 v 6.24 q 0,0.96 0.528,1.368 0.552,0.384 1.536,0.384 0.408,0 0.912,-0.144 0.504,-0.144 0.84,-0.336 0.144,0.144 0.264,0.36 0.12,0.216 0.12,0.504 0,0.528 -0.624,0.864 -0.624,0.336 -1.728,0.336 z"
     style="font-size:24px"
     id="path4819"
     inkscape:connector-curvature="0" /></g>

<g
   aria-label="your shared resources manager"
   transform="translate(27.460686,20.0786)"
   style="font-size:3px;font-family:'Baloo 2';fill:#020203"
   id="text6"><path
     d="M 0.507,-0.309 Q 0.468,-0.381 0.417,-0.492 0.366,-0.603 0.309,-0.741 0.255,-0.879 0.198,-1.032 0.141,-1.188 0.09,-1.347 q 0.021,-0.03 0.054,-0.048 0.036,-0.018 0.075,-0.018 0.051,0 0.081,0.027 0.033,0.027 0.057,0.09 0.09,0.255 0.186,0.501 0.099,0.246 0.222,0.516 h 0.012 q 0.048,-0.093 0.099,-0.225 0.051,-0.135 0.099,-0.285 0.051,-0.15 0.093,-0.303 0.045,-0.156 0.078,-0.297 0.021,-0.009 0.045,-0.015 0.024,-0.009 0.057,-0.009 0.051,0 0.084,0.027 0.033,0.024 0.033,0.075 0,0.06 -0.042,0.219 Q 1.281,-0.933 1.212,-0.735 1.146,-0.537 1.059,-0.327 0.972,-0.12 0.882,0.042 0.741,0.297 0.627,0.432 0.516,0.57 0.42,0.57 0.351,0.57 0.312,0.534 0.276,0.498 0.267,0.45 0.315,0.408 0.375,0.342 0.435,0.276 0.495,0.198 0.555,0.123 0.609,0.042 0.663,-0.039 0.699,-0.114 0.648,-0.129 0.603,-0.165 0.561,-0.204 0.507,-0.309 Z"
     style="font-size:3px;font-family:'Baloo 2';fill:#020203"
     id="path4760"
     inkscape:connector-curvature="0" /><path
     d="m 2.9549913,-0.693 q 0,0.168 -0.048,0.303 -0.048,0.135 -0.138,0.231 -0.087,0.096 -0.213,0.147 -0.126,0.051 -0.282,0.051 -0.156,0 -0.282,-0.051 -0.126,-0.051 -0.216,-0.147 -0.09,-0.096 -0.138,-0.231 -0.048,-0.135 -0.048,-0.303 0,-0.168 0.048,-0.303 0.051,-0.135 0.141,-0.231 0.09,-0.096 0.216,-0.147 0.126,-0.051 0.279,-0.051 0.153,0 0.279,0.051 0.126,0.051 0.213,0.147 0.09,0.096 0.138,0.231 0.051,0.135 0.051,0.303 z m -0.681,-0.534 q -0.204,0 -0.321,0.141 -0.117,0.141 -0.117,0.393 0,0.255 0.114,0.396 0.117,0.138 0.324,0.138 0.207,0 0.321,-0.141 0.114,-0.141 0.114,-0.393 0,-0.252 -0.117,-0.393 -0.114,-0.141 -0.318,-0.141 z"
     style="font-size:3px;font-family:'Baloo 2';fill:#020203"
     id="path4762"
     inkscape:connector-curvature="0" /><path
     d="m 3.3269897,-1.38 q 0.015,-0.006 0.045,-0.012 0.033,-0.009 0.069,-0.009 0.126,0 0.126,0.111 v 0.771 q 0,0.195 0.102,0.279 0.102,0.081 0.282,0.081 0.12,0 0.204,-0.024 0.084,-0.027 0.132,-0.054 V -1.38 q 0.015,-0.006 0.045,-0.012 0.033,-0.009 0.066,-0.009 0.129,0 0.129,0.111 v 1.044 q 0,0.063 -0.018,0.102 -0.015,0.036 -0.078,0.072 -0.069,0.039 -0.192,0.075 -0.12,0.036 -0.291,0.036 -0.3,0 -0.462,-0.132 -0.159,-0.132 -0.159,-0.414 z"
     style="font-size:3px;font-family:'Baloo 2';fill:#020203"
     id="path4764"
     inkscape:connector-curvature="0" /><path
     d="m 5.2169875,-0.006 q -0.015,0.006 -0.045,0.012 -0.03,0.009 -0.066,0.009 -0.129,0 -0.129,-0.108 V -1.11 q 0,-0.069 0.024,-0.108 0.027,-0.042 0.087,-0.081 0.078,-0.051 0.21,-0.087 0.135,-0.039 0.303,-0.039 0.24,0 0.24,0.12 0,0.03 -0.009,0.057 -0.009,0.024 -0.024,0.042 -0.03,-0.006 -0.078,-0.012 -0.048,-0.006 -0.096,-0.006 -0.138,0 -0.243,0.03 -0.105,0.027 -0.174,0.066 z"
     style="font-size:3px;font-family:'Baloo 2';fill:#020203"
     id="path4766"
     inkscape:connector-curvature="0" /><path
     d="m 7.7009839,-0.369 q 0,0.192 -0.141,0.3 -0.141,0.108 -0.408,0.108 -0.114,0 -0.21,-0.021 -0.096,-0.018 -0.165,-0.048 -0.066,-0.033 -0.105,-0.072 -0.036,-0.042 -0.036,-0.084 0,-0.036 0.018,-0.069 0.021,-0.033 0.06,-0.057 0.081,0.06 0.189,0.108 0.108,0.045 0.246,0.045 0.312,0 0.312,-0.21 0,-0.171 -0.207,-0.222 l -0.249,-0.066 q -0.183,-0.048 -0.267,-0.138 -0.084,-0.093 -0.084,-0.237 0,-0.078 0.03,-0.15 0.033,-0.072 0.099,-0.126 0.066,-0.054 0.162,-0.084 0.099,-0.033 0.231,-0.033 0.21,0 0.339,0.063 0.129,0.06 0.129,0.141 0,0.039 -0.021,0.069 -0.018,0.03 -0.051,0.045 -0.054,-0.036 -0.153,-0.078 -0.099,-0.042 -0.234,-0.042 -0.135,0 -0.216,0.051 -0.078,0.051 -0.078,0.144 0,0.069 0.045,0.117 0.045,0.048 0.15,0.072 l 0.207,0.051 q 0.204,0.051 0.306,0.153 0.102,0.099 0.102,0.27 z"
     style="font-size:3px;font-family:'Baloo 2';fill:#020203"
     id="path4768"
     inkscape:connector-curvature="0" /><path
     d="m 8.3099797,-0.006 q -0.015,0.006 -0.045,0.012 -0.03,0.009 -0.066,0.009 -0.129,0 -0.129,-0.108 v -1.851 q 0.015,-0.006 0.045,-0.012 0.033,-0.009 0.069,-0.009 0.126,0 0.126,0.108 v 0.54 q 0.072,-0.042 0.168,-0.075 0.099,-0.033 0.222,-0.033 0.126,0 0.228,0.033 0.105,0.033 0.18,0.102 0.075,0.066 0.117,0.171 0.042,0.102 0.042,0.24 v 0.873 q -0.015,0.006 -0.048,0.012 -0.03,0.009 -0.063,0.009 -0.129,0 -0.129,-0.108 v -0.78 q 0,-0.18 -0.099,-0.267 -0.099,-0.087 -0.261,-0.087 -0.105,0 -0.198,0.039 -0.09,0.036 -0.159,0.09 z"
     style="font-size:3px;font-family:'Baloo 2';fill:#020203"
     id="path4770"
     inkscape:connector-curvature="0" /><path
     d="m 10.211976,-0.156 q 0.126,0 0.207,-0.024 0.084,-0.027 0.12,-0.051 v -0.435 l -0.372,0.039 q -0.156,0.015 -0.2310002,0.072 -0.075,0.054 -0.075,0.162 0,0.114 0.087,0.177 0.087,0.06 0.2640002,0.06 z m -0.003,-1.269 q 0.261,0 0.414,0.117 0.153,0.117 0.153,0.369 v 0.711 q 0,0.066 -0.027,0.102 -0.024,0.033 -0.075,0.063 -0.072,0.042 -0.192,0.072 -0.117,0.033 -0.27,0.033 -0.2820002,0 -0.4380002,-0.111 -0.153,-0.111 -0.153,-0.321 0,-0.198 0.129,-0.297 0.129,-0.102 0.3630002,-0.126 l 0.426,-0.042 v -0.084 q 0,-0.15 -0.09,-0.219 -0.09,-0.069 -0.243,-0.069 -0.126,0 -0.2370002,0.036 -0.111,0.036 -0.198,0.081 -0.024,-0.021 -0.045,-0.048 -0.018,-0.027 -0.018,-0.06 0,-0.042 0.021,-0.069 0.021,-0.027 0.066,-0.051 0.081,-0.042 0.186,-0.063 0.1050002,-0.024 0.2280002,-0.024 z"
     style="font-size:3px;font-family:'Baloo 2';fill:#020203"
     id="path4772"
     inkscape:connector-curvature="0" /><path
     d="m 11.453972,-0.006 q -0.015,0.006 -0.045,0.012 -0.03,0.009 -0.066,0.009 -0.129,0 -0.129,-0.108 V -1.11 q 0,-0.069 0.024,-0.108 0.027,-0.042 0.087,-0.081 0.078,-0.051 0.21,-0.087 0.135,-0.039 0.303,-0.039 0.24,0 0.24,0.12 0,0.03 -0.009,0.057 -0.009,0.024 -0.024,0.042 -0.03,-0.006 -0.078,-0.012 -0.048,-0.006 -0.096,-0.006 -0.138,0 -0.243,0.03 -0.105,0.027 -0.174,0.066 z"
     style="font-size:3px;font-family:'Baloo 2';fill:#020203"
     id="path4774"
     inkscape:connector-curvature="0" /><path
     d="m 12.500971,-0.552 q 0.081,0.393 0.516,0.393 0.126,0 0.228,-0.042 0.102,-0.042 0.162,-0.09 0.072,0.042 0.072,0.114 0,0.042 -0.039,0.081 -0.036,0.039 -0.102,0.069 -0.063,0.03 -0.15,0.048 -0.084,0.018 -0.183,0.018 -0.348,0 -0.552,-0.189 -0.201,-0.189 -0.201,-0.552 0,-0.171 0.048,-0.303 0.051,-0.135 0.138,-0.228 0.09,-0.093 0.213,-0.141 0.123,-0.051 0.267,-0.051 0.135,0 0.249,0.045 0.114,0.045 0.195,0.129 0.084,0.081 0.129,0.195 0.048,0.111 0.048,0.246 0,0.066 -0.03,0.096 -0.03,0.027 -0.084,0.033 z m 0.414,-0.678 q -0.183,0 -0.303,0.129 -0.12,0.126 -0.126,0.363 l 0.825,-0.114 q -0.015,-0.165 -0.117,-0.27 -0.099,-0.108 -0.279,-0.108 z"
     style="font-size:3px;font-family:'Baloo 2';fill:#020203"
     id="path4776"
     inkscape:connector-curvature="0" /><path
     d="m 15.071968,-0.228 q 0,0.06 -0.027,0.093 -0.024,0.033 -0.078,0.066 -0.06,0.039 -0.171,0.072 -0.111,0.036 -0.255,0.036 -0.162,0 -0.297,-0.042 -0.135,-0.042 -0.234,-0.129 -0.096,-0.09 -0.15,-0.225 -0.051,-0.138 -0.051,-0.33 0,-0.195 0.054,-0.333 0.054,-0.141 0.144,-0.231 0.093,-0.09 0.216,-0.132 0.126,-0.042 0.267,-0.042 0.096,0 0.186,0.024 0.09,0.024 0.156,0.06 v -0.603 q 0.015,-0.006 0.045,-0.012 0.033,-0.009 0.066,-0.009 0.129,0 0.129,0.108 z m -0.24,-0.897 q -0.06,-0.042 -0.138,-0.072 -0.078,-0.03 -0.18,-0.03 -0.093,0 -0.177,0.03 -0.081,0.027 -0.144,0.093 -0.063,0.063 -0.102,0.168 -0.036,0.105 -0.036,0.255 0,0.276 0.132,0.399 0.132,0.123 0.351,0.123 0.105,0 0.171,-0.021 0.069,-0.024 0.123,-0.057 z"
     style="font-size:3px;font-family:'Baloo 2';fill:#020203"
     id="path4778"
     inkscape:connector-curvature="0" /><path
     d="m 16.367962,-0.006 q -0.015,0.006 -0.045,0.012 -0.03,0.009 -0.066,0.009 -0.129,0 -0.129,-0.108 V -1.11 q 0,-0.069 0.024,-0.108 0.027,-0.042 0.087,-0.081 0.078,-0.051 0.21,-0.087 0.135,-0.039 0.303,-0.039 0.24,0 0.24,0.12 0,0.03 -0.009,0.057 -0.009,0.024 -0.024,0.042 -0.03,-0.006 -0.078,-0.012 -0.048,-0.006 -0.096,-0.006 -0.138,0 -0.243,0.03 -0.105,0.027 -0.174,0.066 z"
     style="font-size:3px;font-family:'Baloo 2';fill:#020203"
     id="path4780"
     inkscape:connector-curvature="0" /><path
     d="m 17.414961,-0.552 q 0.081,0.393 0.516,0.393 0.126,0 0.228,-0.042 0.102,-0.042 0.162,-0.09 0.072,0.042 0.072,0.114 0,0.042 -0.039,0.081 -0.036,0.039 -0.102,0.069 -0.063,0.03 -0.15,0.048 -0.084,0.018 -0.183,0.018 -0.348,0 -0.552,-0.189 -0.201,-0.189 -0.201,-0.552 0,-0.171 0.048,-0.303 0.051,-0.135 0.138,-0.228 0.09,-0.093 0.213,-0.141 0.123,-0.051 0.267,-0.051 0.135,0 0.249,0.045 0.114,0.045 0.195,0.129 0.084,0.081 0.129,0.195 0.048,0.111 0.048,0.246 0,0.066 -0.03,0.096 -0.03,0.027 -0.084,0.033 z m 0.414,-0.678 q -0.183,0 -0.303,0.129 -0.12,0.126 -0.126,0.363 l 0.825,-0.114 q -0.015,-0.165 -0.117,-0.27 -0.099,-0.108 -0.279,-0.108 z"
     style="font-size:3px;font-family:'Baloo 2';fill:#020203"
     id="path4782"
     inkscape:connector-curvature="0" /><path
     d="m 19.796954,-0.369 q 0,0.192 -0.141,0.3 -0.141,0.108 -0.408,0.108 -0.114,0 -0.21,-0.021 -0.096,-0.018 -0.165,-0.048 -0.066,-0.033 -0.105,-0.072 -0.036,-0.042 -0.036,-0.084 0,-0.036 0.018,-0.069 0.021,-0.033 0.06,-0.057 0.081,0.06 0.189,0.108 0.108,0.045 0.246,0.045 0.312,0 0.312,-0.21 0,-0.171 -0.207,-0.222 l -0.249,-0.066 q -0.183,-0.048 -0.267,-0.138 -0.084,-0.093 -0.084,-0.237 0,-0.078 0.03,-0.15 0.033,-0.072 0.099,-0.126 0.066,-0.054 0.162,-0.084 0.099,-0.033 0.231,-0.033 0.21,0 0.339,0.063 0.129,0.06 0.129,0.141 0,0.039 -0.021,0.069 -0.018,0.03 -0.051,0.045 -0.054,-0.036 -0.153,-0.078 -0.099,-0.042 -0.234,-0.042 -0.135,0 -0.216,0.051 -0.078,0.051 -0.078,0.144 0,0.069 0.045,0.117 0.045,0.048 0.15,0.072 l 0.207,0.051 q 0.204,0.051 0.306,0.153 0.102,0.099 0.102,0.27 z"
     style="font-size:3px;font-family:'Baloo 2';fill:#020203"
     id="path4784"
     inkscape:connector-curvature="0" /><path
     d="m 21.461947,-0.693 q 0,0.168 -0.048,0.303 -0.048,0.135 -0.138,0.231 -0.087,0.096 -0.213,0.147 -0.126,0.051 -0.282,0.051 -0.156,0 -0.282,-0.051 -0.126,-0.051 -0.216,-0.147 -0.09,-0.096 -0.138,-0.231 -0.048,-0.135 -0.048,-0.303 0,-0.168 0.048,-0.303 0.051,-0.135 0.141,-0.231 0.09,-0.096 0.216,-0.147 0.126,-0.051 0.279,-0.051 0.153,0 0.279,0.051 0.126,0.051 0.213,0.147 0.09,0.096 0.138,0.231 0.051,0.135 0.051,0.303 z m -0.681,-0.534 q -0.204,0 -0.321,0.141 -0.117,0.141 -0.117,0.393 0,0.255 0.114,0.396 0.117,0.138 0.324,0.138 0.207,0 0.321,-0.141 0.114,-0.141 0.114,-0.393 0,-0.252 -0.117,-0.393 -0.114,-0.141 -0.318,-0.141 z"
     style="font-size:3px;font-family:'Baloo 2';fill:#020203"
     id="path4786"
     inkscape:connector-curvature="0" /><path
     d="m 21.833946,-1.38 q 0.015,-0.006 0.045,-0.012 0.033,-0.009 0.069,-0.009 0.126,0 0.126,0.111 v 0.771 q 0,0.195 0.102,0.279 0.102,0.081 0.282,0.081 0.12,0 0.204,-0.024 0.084,-0.027 0.132,-0.054 V -1.38 q 0.015,-0.006 0.045,-0.012 0.033,-0.009 0.066,-0.009 0.129,0 0.129,0.111 v 1.044 q 0,0.063 -0.018,0.102 -0.015,0.036 -0.078,0.072 -0.069,0.039 -0.192,0.075 -0.12,0.036 -0.291,0.036 -0.3,0 -0.462,-0.132 -0.159,-0.132 -0.159,-0.414 z"
     style="font-size:3px;font-family:'Baloo 2';fill:#020203"
     id="path4788"
     inkscape:connector-curvature="0" /><path
     d="m 23.723944,-0.006 q -0.015,0.006 -0.045,0.012 -0.03,0.009 -0.066,0.009 -0.129,0 -0.129,-0.108 V -1.11 q 0,-0.069 0.024,-0.108 0.027,-0.042 0.087,-0.081 0.078,-0.051 0.21,-0.087 0.135,-0.039 0.303,-0.039 0.24,0 0.24,0.12 0,0.03 -0.009,0.057 -0.009,0.024 -0.024,0.042 -0.03,-0.006 -0.078,-0.012 -0.048,-0.006 -0.096,-0.006 -0.138,0 -0.243,0.03 -0.105,0.027 -0.174,0.066 z"
     style="font-size:3px;font-family:'Baloo 2';fill:#020203"
     id="path4790"
     inkscape:connector-curvature="0" /><path
     d="m 25.241943,-1.224 q -0.102,0 -0.189,0.036 -0.087,0.033 -0.15,0.102 -0.063,0.066 -0.099,0.168 -0.036,0.099 -0.036,0.228 0,0.258 0.129,0.396 0.129,0.135 0.345,0.135 0.126,0 0.21,-0.033 0.084,-0.036 0.15,-0.081 0.033,0.018 0.054,0.045 0.021,0.027 0.021,0.066 0,0.042 -0.033,0.078 -0.033,0.036 -0.093,0.063 -0.057,0.027 -0.138,0.042 -0.078,0.018 -0.171,0.018 -0.156,0 -0.288,-0.045 -0.132,-0.045 -0.228,-0.135 -0.096,-0.09 -0.15,-0.225 -0.054,-0.138 -0.054,-0.324 0,-0.183 0.057,-0.318 0.057,-0.138 0.153,-0.231 0.096,-0.093 0.225,-0.138 0.132,-0.048 0.279,-0.048 0.093,0 0.171,0.018 0.081,0.015 0.138,0.045 0.057,0.03 0.087,0.069 0.033,0.036 0.033,0.075 0,0.036 -0.021,0.063 -0.021,0.027 -0.054,0.042 -0.066,-0.045 -0.144,-0.078 -0.078,-0.033 -0.204,-0.033 z"
     style="font-size:3px;font-family:'Baloo 2';fill:#020203"
     id="path4792"
     inkscape:connector-curvature="0" /><path
     d="m 26.168936,-0.552 q 0.081,0.393 0.516,0.393 0.126,0 0.228,-0.042 0.102,-0.042 0.162,-0.09 0.072,0.042 0.072,0.114 0,0.042 -0.039,0.081 -0.036,0.039 -0.102,0.069 -0.063,0.03 -0.15,0.048 -0.084,0.018 -0.183,0.018 -0.348,0 -0.552,-0.189 -0.201,-0.189 -0.201,-0.552 0,-0.171 0.048,-0.303 0.051,-0.135 0.138,-0.228 0.09,-0.093 0.213,-0.141 0.123,-0.051 0.267,-0.051 0.135,0 0.249,0.045 0.114,0.045 0.195,0.129 0.084,0.081 0.129,0.195 0.048,0.111 0.048,0.246 0,0.066 -0.03,0.096 -0.03,0.027 -0.084,0.033 z m 0.414,-0.678 q -0.183,0 -0.303,0.129 -0.12,0.126 -0.126,0.363 l 0.825,-0.114 q -0.015,-0.165 -0.117,-0.27 -0.099,-0.108 -0.279,-0.108 z"
     style="font-size:3px;font-family:'Baloo 2';fill:#020203"
     id="path4794"
     inkscape:connector-curvature="0" /><path
     d="m 28.550929,-0.369 q 0,0.192 -0.141,0.3 -0.141,0.108 -0.408,0.108 -0.114,0 -0.21,-0.021 -0.096,-0.018 -0.165,-0.048 -0.066,-0.033 -0.105,-0.072 -0.036,-0.042 -0.036,-0.084 0,-0.036 0.018,-0.069 0.021,-0.033 0.06,-0.057 0.081,0.06 0.189,0.108 0.108,0.045 0.246,0.045 0.312,0 0.312,-0.21 0,-0.171 -0.207,-0.222 l -0.249,-0.066 q -0.183,-0.048 -0.267,-0.138 -0.084,-0.093 -0.084,-0.237 0,-0.078 0.03,-0.15 0.033,-0.072 0.099,-0.126 0.066,-0.054 0.162,-0.084 0.099,-0.033 0.231,-0.033 0.21,0 0.339,0.063 0.129,0.06 0.129,0.141 0,0.039 -0.021,0.069 -0.018,0.03 -0.051,0.045 -0.054,-0.036 -0.153,-0.078 -0.099,-0.042 -0.234,-0.042 -0.135,0 -0.216,0.051 -0.078,0.051 -0.078,0.144 0,0.069 0.045,0.117 0.045,0.048 0.15,0.072 l 0.207,0.051 q 0.204,0.051 0.306,0.153 0.102,0.099 0.102,0.27 z"
     style="font-size:3px;font-family:'Baloo 2';fill:#020203"
     id="path4796"
     inkscape:connector-curvature="0" /><path
     d="m 31.271921,-0.942 q 0,-0.147 -0.084,-0.216 -0.084,-0.069 -0.225,-0.069 -0.195,0 -0.348,0.138 0.018,0.06 0.018,0.129 v 0.954 q -0.015,0.006 -0.048,0.012 -0.03,0.009 -0.063,0.009 -0.129,0 -0.129,-0.108 v -0.849 q 0,-0.147 -0.084,-0.216 -0.084,-0.069 -0.228,-0.069 -0.096,0 -0.183,0.03 -0.084,0.03 -0.144,0.069 v 1.122 q -0.015,0.006 -0.045,0.012 -0.03,0.009 -0.066,0.009 -0.129,0 -0.129,-0.108 v -1.023 q 0,-0.06 0.024,-0.099 0.027,-0.042 0.09,-0.084 0.081,-0.051 0.204,-0.087 0.126,-0.039 0.252,-0.039 0.147,0 0.261,0.045 0.114,0.042 0.174,0.117 0.078,-0.069 0.195,-0.114 0.117,-0.048 0.267,-0.048 0.243,0 0.387,0.117 0.144,0.114 0.144,0.354 v 0.948 q -0.015,0.006 -0.048,0.012 -0.03,0.009 -0.063,0.009 -0.129,0 -0.129,-0.108 z"
     style="font-size:3px;font-family:'Baloo 2';fill:#020203"
     id="path4798"
     inkscape:connector-curvature="0" /><path
     d="m 32.456921,-0.156 q 0.126,0 0.207,-0.024 0.084,-0.027 0.12,-0.051 v -0.435 l -0.372,0.039 q -0.156,0.015 -0.231,0.072 -0.075,0.054 -0.075,0.162 0,0.114 0.087,0.177 0.087,0.06 0.264,0.06 z m -0.003,-1.269 q 0.261,0 0.414,0.117 0.153,0.117 0.153,0.369 v 0.711 q 0,0.066 -0.027,0.102 -0.024,0.033 -0.075,0.063 -0.072,0.042 -0.192,0.072 -0.117,0.033 -0.27,0.033 -0.282,0 -0.438,-0.111 -0.153,-0.111 -0.153,-0.321 0,-0.198 0.129,-0.297 0.129,-0.102 0.363,-0.126 l 0.426,-0.042 v -0.084 q 0,-0.15 -0.09,-0.219 -0.09,-0.069 -0.243,-0.069 -0.126,0 -0.237,0.036 -0.111,0.036 -0.198,0.081 -0.024,-0.021 -0.045,-0.048 -0.018,-0.027 -0.018,-0.06 0,-0.042 0.021,-0.069 0.021,-0.027 0.066,-0.051 0.081,-0.042 0.186,-0.063 0.105,-0.024 0.228,-0.024 z"
     style="font-size:3px;font-family:'Baloo 2';fill:#020203"
     id="path4800"
     inkscape:connector-curvature="0" /><path
     d="m 34.418917,-0.903 q 0,-0.168 -0.096,-0.246 -0.093,-0.078 -0.252,-0.078 -0.12,0 -0.213,0.03 -0.093,0.03 -0.159,0.069 v 1.122 q -0.015,0.006 -0.045,0.012 -0.03,0.009 -0.066,0.009 -0.129,0 -0.129,-0.108 v -1.023 q 0,-0.063 0.024,-0.102 0.027,-0.042 0.09,-0.081 0.078,-0.048 0.207,-0.087 0.129,-0.039 0.291,-0.039 0.273,0 0.429,0.123 0.159,0.123 0.159,0.387 v 0.909 q -0.015,0.006 -0.048,0.012 -0.03,0.009 -0.063,0.009 -0.129,0 -0.129,-0.108 z"
     style="font-size:3px;font-family:'Baloo 2';fill:#020203"
     id="path4802"
     inkscape:connector-curvature="0" /><path
     d="m 35.603915,-0.156 q 0.126,0 0.207,-0.024 0.084,-0.027 0.12,-0.051 v -0.435 l -0.372,0.039 q -0.156,0.015 -0.231,0.072 -0.075,0.054 -0.075,0.162 0,0.114 0.087,0.177 0.087,0.06 0.264,0.06 z m -0.003,-1.269 q 0.261,0 0.414,0.117 0.153,0.117 0.153,0.369 v 0.711 q 0,0.066 -0.027,0.102 -0.024,0.033 -0.075,0.063 -0.072,0.042 -0.192,0.072 -0.117,0.033 -0.27,0.033 -0.282,0 -0.438,-0.111 -0.153,-0.111 -0.153,-0.321 0,-0.198 0.129,-0.297 0.129,-0.102 0.363,-0.126 l 0.426,-0.042 v -0.084 q 0,-0.15 -0.09,-0.219 -0.09,-0.069 -0.243,-0.069 -0.126,0 -0.237,0.036 -0.111,0.036 -0.198,0.081 -0.024,-0.021 -0.045,-0.048 -0.018,-0.027 -0.018,-0.06 0,-0.042 0.021,-0.069 0.021,-0.027 0.066,-0.051 0.081,-0.042 0.186,-0.063 0.105,-0.024 0.228,-0.024 z"
     style="font-size:3px;font-family:'Baloo 2';fill:#020203"
     id="path4804"
     inkscape:connector-curvature="0" /><path
     d="m 37.532913,-0.144 q -0.051,0.042 -0.141,0.072 -0.087,0.03 -0.21,0.03 -0.132,0 -0.249,-0.036 -0.117,-0.039 -0.207,-0.12 -0.087,-0.084 -0.141,-0.216 -0.051,-0.132 -0.051,-0.321 0,-0.171 0.051,-0.3 0.051,-0.129 0.141,-0.216 0.093,-0.087 0.219,-0.129 0.126,-0.045 0.279,-0.045 0.138,0 0.252,0.036 0.117,0.033 0.195,0.084 0.045,0.03 0.072,0.069 0.03,0.036 0.03,0.09 V 0.06 q 0,0.15 -0.051,0.252 -0.048,0.105 -0.138,0.168 -0.087,0.066 -0.207,0.096 -0.12,0.03 -0.258,0.03 -0.153,0 -0.261,-0.033 -0.105,-0.03 -0.144,-0.054 -0.09,-0.051 -0.09,-0.129 0,-0.042 0.018,-0.072 0.021,-0.027 0.051,-0.042 0.063,0.048 0.177,0.087 0.114,0.042 0.249,0.042 0.201,0 0.306,-0.087 0.108,-0.084 0.108,-0.273 z m -0.324,-0.096 q 0.12,0 0.195,-0.036 0.078,-0.039 0.129,-0.087 v -0.78 q -0.051,-0.033 -0.129,-0.057 -0.075,-0.027 -0.18,-0.027 -0.204,0 -0.327,0.123 -0.12,0.123 -0.12,0.366 0,0.135 0.033,0.231 0.033,0.093 0.09,0.153 0.06,0.06 0.138,0.087 0.081,0.027 0.171,0.027 z"
     style="font-size:3px;font-family:'Baloo 2';fill:#020203"
     id="path4806"
     inkscape:connector-curvature="0" /><path
     d="m 38.387905,-0.552 q 0.081,0.393 0.516,0.393 0.126,0 0.228,-0.042 0.102,-0.042 0.162,-0.09 0.072,0.042 0.072,0.114 0,0.042 -0.039,0.081 -0.036,0.039 -0.102,0.069 -0.063,0.03 -0.15,0.048 -0.084,0.018 -0.183,0.018 -0.348,0 -0.552,-0.189 -0.201,-0.189 -0.201,-0.552 0,-0.171 0.048,-0.303 0.051,-0.135 0.138,-0.228 0.09,-0.093 0.213,-0.141 0.123,-0.051 0.267,-0.051 0.135,0 0.249,0.045 0.114,0.045 0.195,0.129 0.084,0.081 0.129,0.195 0.048,0.111 0.048,0.246 0,0.066 -0.03,0.096 -0.03,0.027 -0.084,0.033 z m 0.414,-0.678 q -0.183,0 -0.303,0.129 -0.12,0.126 -0.126,0.363 l 0.825,-0.114 q -0.015,-0.165 -0.117,-0.27 -0.099,-0.108 -0.279,-0.108 z"
     style="font-size:3px;font-family:'Baloo 2';fill:#020203"
     id="path4808"
     inkscape:connector-curvature="0" /><path
     d="m 40.013904,-0.006 q -0.015,0.006 -0.045,0.012 -0.03,0.009 -0.066,0.009 -0.129,0 -0.129,-0.108 V -1.11 q 0,-0.069 0.024,-0.108 0.027,-0.042 0.087,-0.081 0.078,-0.051 0.21,-0.087 0.135,-0.039 0.303,-0.039 0.24,0 0.24,0.12 0,0.03 -0.009,0.057 -0.009,0.024 -0.024,0.042 -0.03,-0.006 -0.078,-0.012 -0.048,-0.006 -0.096,-0.006 -0.138,0 -0.243,0.03 -0.105,0.027 -0.174,0.066 z"
     style="font-size:3px;font-family:'Baloo 2';fill:#020203"
     id="path4810"
     inkscape:connector-curvature="0" /></g>

<line
   class="st4"
   x1="2.0284851"
   y1="10.086098"
   x2="16.018486"
   y2="2.0961003"
   id="line8"
   style="fill:#efd76c;stroke:#9da97c;stroke-width:4;stroke-linecap:round;stroke-miterlimit:10" />
<line
   class="st4"
   x1="5.4684854"
   y1="18.076103"
   x2="18.198486"
   y2="10.086098"
   id="line10"
   style="fill:#efd76c;stroke:#9da97c;stroke-width:4;stroke-linecap:round;stroke-miterlimit:10" />
<line
   class="st5"
   x1="5.4684854"
   y1="2.0961003"
   x2="16.018486"
   y2="2.0961003"
   id="line12"
   style="fill:#f0d76b;stroke:#efd76c;stroke-width:4;stroke-linecap:round;stroke-miterlimit:10" />
<line
   class="st5"
   x1="5.4684854"
   y1="18.076103"
   x2="16.018486"
   y2="18.076103"
   id="line14"
   style="fill:#f0d76b;stroke:#efd76c;stroke-width:4;stroke-linecap:round;stroke-miterlimit:10" />
<line
   class="st5"
   x1="2.0284851"
   y1="10.086098"
   x2="18.198486"
   y2="10.086098"
   id="line16"
   style="fill:#f0d76b;stroke:#efd76c;stroke-width:4;stroke-linecap:round;stroke-miterlimit:10" />
</svg>